# xmcd
#
# Track frame offsets:
#	150
#	14962
#	28020
#	40031
#	53146
#	65066
#	80880
#	94761
#	107743
#	121883
#	135016
#	148320
#	160588
#	173758
#	187554
#	201236
#	213633
#	227303
#	241012
#	254479
#	266952
#	279468
#
# Disc length: 3902 seconds
#
# Revision: 1
# Processed by: cddbd v1.4PL0 Copyright (c) Steve Scherf et al.
# Submitted via: audiograbber 1.80
#
DISCID=380f3c16
DTITLE=T-Bone Walker - T-Bone Blues
DYEAR=1900
DGENRE=
TTITLE0=I Got A Breal
TTITLE1=Mean Old World
TTITLE2=Sail On Boogie
TTITLE3=I'm Still In Love With You
TTITLE4=You Don't Love Me Blues
TTITLE5=Evening
TTITLE6=T-Bone Boogie
TTITLE7=Mean Old World Blues
TTITLE8=Come Back To Me Baby
TTITLE9=My Baby Left Me
TTITLE10=She Is Going To Ruin Me
TTITLE11=No Worry Blues
TTITLE12=I'm Gonna Find My Baby
TTITLE13=Don't Give Me The Runaround
TTITLE14=Hard Pain Blues
TTITLE15=I Know Your Wig Is Gone
TTITLE16=Call It Stormy Monday
TTITLE17=I'm Waiting For Your Call
TTITLE18=T-Bone Shuffle
TTITLE19=West Side Story
TTITLE20=I Want A Little Girl
TTITLE21=Vacation Blues
EXTD=
EXTT0=
EXTT1=
EXTT2=
EXTT3=
EXTT4=
EXTT5=
EXTT6=
EXTT7=
EXTT8=
EXTT9=
EXTT10=
EXTT11=
EXTT12=
EXTT13=
EXTT14=
EXTT15=
EXTT16=
EXTT17=
EXTT18=
EXTT19=
EXTT20=
EXTT21=
PLAYORDER=
